<?xml version="1.0" standalone="no"?>
<!DOCTYPE svg PUBLIC "-//W3C//DTD SVG 20010904//EN"
 "http://www.w3.org/TR/2001/REC-SVG-20010904/DTD/svg10.dtd">
<svg version="1.0" xmlns="http://www.w3.org/2000/svg"
 width="1058.000000pt" height="707.000000pt" viewBox="0 0 1058.000000 707.000000"
 preserveAspectRatio="xMidYMid meet">

<g transform="translate(0.000000,707.000000) scale(0.100000,-0.100000)"
fill="#ff0000" stroke="none">
<path d="M7650 5605 c0 -18 52 -55 100 -70 44 -14 219 -100 300 -147 198 -115
397 -253 480 -332 30 -29 87 -75 125 -103 140 -102 385 -374 448 -498 106
-211 132 -306 129 -473 -3 -157 -55 -350 -122 -446 -16 -25 -30 -49 -30 -55 0
-27 -55 -97 -160 -202 -131 -132 -199 -190 -285 -244 -33 -21 -75 -51 -93 -66
-18 -16 -38 -29 -44 -29 -6 0 -52 -24 -102 -54 -139 -82 -464 -236 -626 -296
-47 -18 -114 -43 -150 -57 -90 -35 -468 -159 -510 -168 -19 -4 -75 -19 -125
-35 -220 -69 -659 -151 -965 -180 -52 -5 -140 -13 -195 -19 -309 -32 -910 -39
-1330 -16 -506 28 -1090 95 -1162 133 -11 6 -60 16 -109 22 -179 23 -449 79
-614 127 -154 45 -413 131 -515 171 -189 74 -501 226 -545 267 -14 13 -54 37
-90 55 -167 83 -404 298 -498 451 -107 175 -144 368 -106 561 19 95 108 287
173 372 47 62 109 126 121 126 6 0 10 6 10 13 0 16 105 111 200 180 86 64 379
230 500 283 561 247 1062 395 1740 513 143 25 399 58 505 66 44 3 127 10 185
14 58 5 167 9 243 9 75 1 148 2 162 2 14 0 25 4 25 10 0 9 -56 38 -90 47 -125
32 -496 41 -715 19 -414 -43 -738 -93 -1120 -173 -250 -52 -643 -154 -735
-190 -36 -14 -123 -45 -195 -70 -309 -105 -524 -201 -790 -353 -174 -99 -329
-220 -422 -330 -21 -24 -55 -60 -75 -78 -21 -19 -38 -41 -38 -49 0 -9 -15 -36
-34 -62 -81 -111 -101 -176 -118 -372 -10 -112 -9 -136 7 -200 9 -41 17 -85
17 -99 0 -14 8 -38 18 -55 10 -16 32 -57 49 -90 84 -163 239 -312 526 -505 44
-30 87 -60 95 -68 8 -8 62 -37 120 -64 337 -159 322 -153 500 -223 210 -83
435 -157 680 -226 118 -33 247 -71 287 -85 40 -13 105 -28 145 -34 106 -15
240 -39 473 -85 65 -13 280 -47 605 -94 327 -49 468 -61 895 -82 453 -22 1510
4 1720 41 28 5 75 12 105 15 278 33 1026 215 1195 291 17 7 91 35 165 63 75
27 190 73 255 101 66 29 167 72 223 97 112 48 277 135 412 218 47 28 107 65
135 80 49 28 110 72 152 110 96 86 246 243 278 291 22 33 45 64 51 69 20 18
83 144 104 206 12 33 25 68 30 77 16 31 35 205 32 312 -3 148 -34 246 -136
426 -32 57 -42 71 -116 155 -98 113 -168 177 -376 344 -279 225 -545 396 -849
548 -55 27 -111 57 -125 66 -14 9 -63 32 -110 50 -47 18 -96 37 -110 43 -94
38 -190 54 -190 33z"/>
<path d="M4920 5446 c0 -32 168 -77 190 -51 14 17 -16 40 -72 54 -65 16 -118
14 -118 -3z"/>
<path d="M6731 4749 c0 -27 49 -64 164 -125 165 -86 475 -291 475 -314 0 -39
-84 -69 -352 -130 -102 -22 -122 -38 -93 -70 30 -33 249 -80 374 -80 54 0 109
9 191 32 156 43 216 47 255 16 16 -13 60 -39 99 -59 39 -19 136 -69 216 -111
80 -42 183 -87 230 -101 207 -62 422 -63 385 -1 -6 9 -63 38 -128 64 -144 59
-359 171 -402 208 -17 16 -57 39 -88 51 -57 23 -77 50 -64 85 8 19 374 162
567 221 30 9 61 22 68 27 64 53 -107 120 -308 120 -116 0 -109 2 -457 -128
-94 -35 -182 -64 -195 -64 -14 0 -50 16 -82 35 -32 19 -60 35 -61 35 -7 0
-282 175 -294 188 -20 19 -125 66 -206 91 -38 12 -112 23 -180 27 l-115 7 1
-24z"/>
<path d="M3283 4523 c-12 -2 -27 -10 -33 -18 -9 -11 0 -22 42 -53 91 -67 133
-122 203 -266 36 -74 65 -144 64 -153 -1 -10 5 -35 14 -57 9 -21 17 -42 17
-47 0 -5 7 -30 16 -56 9 -26 18 -59 19 -73 2 -14 10 -56 19 -95 8 -38 16 -84
16 -102 0 -17 4 -42 9 -55 4 -13 11 -42 15 -65 6 -40 5 -43 -21 -49 -27 -7
-63 -33 -63 -45 0 -4 25 -23 55 -44 30 -20 55 -41 56 -48 3 -43 8 -77 19 -112
31 -107 90 -385 90 -428 0 -66 26 -90 120 -111 77 -18 317 -26 358 -12 36 12
41 34 27 121 -13 79 -23 119 -64 265 -12 41 -28 108 -37 148 -8 40 -17 78 -19
85 -11 29 18 38 223 67 282 39 731 132 1070 222 64 16 88 13 187 -28 149 -60
521 -212 660 -269 72 -29 173 -70 225 -92 52 -22 149 -60 215 -83 66 -24 127
-49 135 -56 8 -6 44 -14 80 -18 36 -3 88 -10 115 -15 60 -12 215 -14 231 -3 6
4 16 17 23 30 11 20 8 26 -24 55 -33 30 -103 57 -260 100 -22 6 -137 46 -255
90 -191 70 -256 95 -365 143 -48 20 -393 158 -473 188 -39 15 -70 32 -66 37 3
5 29 9 58 9 39 0 57 5 70 19 10 11 29 22 43 26 24 6 24 7 9 24 -29 32 -109 68
-201 91 -80 20 -104 22 -240 16 -82 -4 -163 -8 -180 -8 -26 -1 -130 37 -420
153 -136 54 -270 109 -300 123 -16 7 -69 28 -117 46 -49 18 -93 39 -99 46 -6
8 -18 14 -26 14 -8 0 -106 36 -217 79 -110 44 -262 102 -336 129 -74 27 -162
59 -195 72 -140 53 -224 69 -350 68 -66 0 -130 -3 -142 -5z m782 -349 c38 -15
77 -32 85 -39 8 -7 40 -20 70 -30 30 -10 107 -40 170 -68 63 -27 135 -57 160
-67 25 -10 97 -39 160 -65 63 -26 185 -76 270 -111 85 -34 156 -66 157 -71 2
-4 -43 -18 -99 -30 -57 -12 -173 -38 -258 -58 -207 -48 -576 -125 -599 -125
-16 0 -24 19 -46 118 -15 64 -38 155 -52 201 -13 46 -22 92 -20 103 4 16 -6
54 -40 153 -2 6 -14 30 -28 54 -41 72 -36 74 70 35z"/>
</g>
</svg>

